<svg xmlns="http://www.w3.org/2000/svg" viewBox="-10 -10 372.84 372.84">
<defs>
  <style>.cls-1{fill:#692969;}</style>
  <filter id="dropShadow">
    <feGaussianBlur in="SourceAlpha" stdDeviation="2"></feGaussianBlur>
    <feOffset dx="0" dy="0"></feOffset>
    <feComponentTransfer>
      <feFuncA type="linear" slope="0.15"/>
    </feComponentTransfer>
    <feMerge>
      <feMergeNode></feMergeNode>
      <feMergeNode in="SourceGraphic"></feMergeNode>
    </feMerge>
  </filter>
</defs>
<title>OculoSymbol</title>
<g filter="url(#dropShadow)"><path class="cls-1" d="M334.6,294.05h0l-57.24,33a246.38,246.38,0,0,0,84.33-6.31c24.24-6.06,46.26-15.31,65.12-27.22a176.74,176.74,0,0,0-29.5-152.66,251,251,0,0,1-9.43,54.21C377.18,232.55,358.25,267.69,334.6,294.05Z" transform="translate(-80.12 -70.84)"/><path class="cls-1" d="M253.56,153.66h0l57.21,33a246.35,246.35,0,0,0-47.63-69.86A226.14,226.14,0,0,0,211.67,76.6a176.86,176.86,0,0,0-115,95.89A254.74,254.74,0,0,1,141.24,157C179,147.54,218.9,146.36,253.56,153.66Z" transform="translate(-80.12 -70.84)"/><path class="cls-1" d="M275.57,104.83c27.06,28,48,61.95,59,95.62h0v66.06a246.38,246.38,0,0,0,36.68-76.16c6.75-23.61,9.76-46.89,9-68.84A175.82,175.82,0,0,0,259.62,70.87a178.08,178.08,0,0,0-22.77,1.06A253,253,0,0,1,275.57,104.83Z" transform="translate(-80.12 -70.84)"/><path class="cls-1" d="M305.42,345.57a233,233,0,0,1-51.87-4.7v0h0l-57.23-33a246.36,246.36,0,0,0,47.62,69.86A225,225,0,0,0,297.27,419,176.81,176.81,0,0,0,418,318.37a250.78,250.78,0,0,1-52.16,19.19A270.24,270.24,0,0,1,305.42,345.57Z" transform="translate(-80.12 -70.84)"/><path class="cls-1" d="M172.46,200.5l0,0v-.06l57.22-33a246.35,246.35,0,0,0-84.29,6.32,227.79,227.79,0,0,0-57.93,22.9A176.75,176.75,0,0,0,110.32,346a254.57,254.57,0,0,1,8.85-46.54C129.87,262,148.8,226.87,172.46,200.5Z" transform="translate(-80.12 -70.84)"/><path class="cls-1" d="M231.51,389.68c-27.06-28-48-61.95-59-95.62h0V228a246.34,246.34,0,0,0-36.71,76.21,227.33,227.33,0,0,0-9.13,62.45,175.92,175.92,0,0,0,126.82,57q8.86.15,17.51-.56A252.6,252.6,0,0,1,231.51,389.68Z" transform="translate(-80.12 -70.84)"/><path class="cls-1" d="M253.9,201.22a45.69,45.69,0,1,1-45.69,45.69,45.69,45.69,0,0,1,45.69-45.69m0-23a68.69,68.69,0,1,0,68.69,68.69,68.77,68.77,0,0,0-68.69-68.69Z" transform="translate(-80.12 -70.84)"/></g></svg>