<svg id="OculoJS" xmlns="http://www.w3.org/2000/svg" viewBox="0 0 1231.28 352.84"><defs><style>.cls-1{fill:#692969;}</style></defs><title>OculoJS</title><path class="cls-1" d="M1275.31,207.2c-23.39-23.29-55.3-36.1-89.92-36.1h-.51c-71.88.26-126.21,54.13-126.38,125.31-.08,34.38,12.89,66.28,36.53,89.83s55.25,36.29,89.47,36.29h.86c35.62-.22,68-13.62,91.2-37.7,22.48-23.35,34.85-54.82,34.83-88.62C1311.38,262,1298.57,230.35,1275.31,207.2ZM1126.88,332.07c-12.48-27.58-10.79-54.58,5-80.24,11.25-18.24,31.09-29.08,53.17-29.08h.61c22.12.2,41.86,11.36,52.81,29.86,17.84,30.13,17.36,60.46-1.42,90.14-11.83,18.68-29.95,27.77-55.4,27.78C1157.4,370.15,1137.93,356.49,1126.88,332.07Z" transform="translate(-80.12 -70.84)"/><rect class="cls-1" x="883.74" y="9.53" width="59.29" height="333.89"/><path class="cls-1" d="M861.79,413.64l-1.62-25.39c-5,4.25-9.36,8.17-13.92,11.92-32.16,26.38-83.32,22.39-109.06,5.06-20-13.47-30.48-33.05-34.8-56.11a162.32,162.32,0,0,1-2.51-28.79c-.25-44.66-.11-89.32-.11-134V180h58.84v6.27c0,44.49-.08,89,.09,133.48A75.46,75.46,0,0,0,760.84,338c5.09,19.86,22.1,31.37,43.69,30.44,35.07-1.5,53.85-30.65,54.35-57.62.77-41.48.28-83,.32-124.47,0-2,0-4,0-6.36h58.7V413.64Z" transform="translate(-80.12 -70.84)"/><path class="cls-1" d="M636.25,344.62c-13.27,13.54-31,22.66-48.14,24.4-26.55,2.7-47.12-6.27-61.14-26.67-11.59-16.87-15.66-36.42-12.44-59.79,4.28-31,21-45.53,34.25-52.26,19.38-9.83,44.82-9.21,64.81,1.58,5.05,2.73,15.63,11.2,20,14.68l37.78-37.5a111,111,0,0,0-29-22.4c-24.75-13.61-52.33-18.37-82-14.14-42,6-73.24,27.72-92.9,64.58-14.1,26.44-17.89,55.76-11.59,89.66,4.76,25.62,15.93,46.91,33.21,63.29,19.34,18.33,43.82,28.54,74.84,31.22q8,.69,15.5.69c28.89,0,53.14-7.59,73.78-23,4.32-3.23,18.69-15.62,18.69-15.62Z" transform="translate(-80.12 -70.84)"/><path class="cls-1" d="M334.6,294.05h0l-57.24,33a246.38,246.38,0,0,0,84.33-6.31c24.24-6.06,46.26-15.31,65.12-27.22a176.74,176.74,0,0,0-29.5-152.66,251,251,0,0,1-9.43,54.21C377.18,232.55,358.25,267.69,334.6,294.05Z" transform="translate(-80.12 -70.84)"/><path class="cls-1" d="M253.56,153.66h0l57.21,33a246.35,246.35,0,0,0-47.63-69.86A226.14,226.14,0,0,0,211.67,76.6a176.86,176.86,0,0,0-115,95.89A254.74,254.74,0,0,1,141.24,157C179,147.54,218.9,146.36,253.56,153.66Z" transform="translate(-80.12 -70.84)"/><path class="cls-1" d="M275.57,104.83c27.06,28,48,61.95,59,95.62h0v66.06a246.38,246.38,0,0,0,36.68-76.16c6.75-23.61,9.76-46.89,9-68.84A175.82,175.82,0,0,0,259.62,70.87a178.08,178.08,0,0,0-22.77,1.06A253,253,0,0,1,275.57,104.83Z" transform="translate(-80.12 -70.84)"/><path class="cls-1" d="M305.42,345.57a233,233,0,0,1-51.87-4.7v0h0l-57.23-33a246.36,246.36,0,0,0,47.62,69.86A225,225,0,0,0,297.27,419,176.81,176.81,0,0,0,418,318.37a250.78,250.78,0,0,1-52.16,19.19A270.24,270.24,0,0,1,305.42,345.57Z" transform="translate(-80.12 -70.84)"/><path class="cls-1" d="M172.46,200.5l0,0v-.06l57.22-33a246.35,246.35,0,0,0-84.29,6.32,227.79,227.79,0,0,0-57.93,22.9A176.75,176.75,0,0,0,110.32,346a254.57,254.57,0,0,1,8.85-46.54C129.87,262,148.8,226.87,172.46,200.5Z" transform="translate(-80.12 -70.84)"/><path class="cls-1" d="M231.51,389.68c-27.06-28-48-61.95-59-95.62h0V228a246.34,246.34,0,0,0-36.71,76.21,227.33,227.33,0,0,0-9.13,62.45,175.92,175.92,0,0,0,126.82,57q8.86.15,17.51-.56A252.6,252.6,0,0,1,231.51,389.68Z" transform="translate(-80.12 -70.84)"/><path class="cls-1" d="M253.9,201.22a45.69,45.69,0,1,1-45.69,45.69,45.69,45.69,0,0,1,45.69-45.69m0-23a68.69,68.69,0,1,0,68.69,68.69,68.77,68.77,0,0,0-68.69-68.69Z" transform="translate(-80.12 -70.84)"/></svg>